<svg width="36" height="36" viewBox="0 0 36 36" fill="none" xmlns="http://www.w3.org/2000/svg">
<path d="M5.18863 6.66151L4.95447 6.57392C5.19041 5.9432 5.76885 5.42178 6.44634 5.20516L5.18863 6.66151ZM5.18863 6.66151L4.95447 6.57392C4.78112 7.03736 3.70543 10.5417 2.67777 13.9404C2.16282 15.6435 1.6584 17.3252 1.28266 18.5947C1.09482 19.2294 0.938972 19.7616 0.830011 20.1422C0.775578 20.3323 0.732559 20.4856 0.703034 20.5952C0.688329 20.6498 0.67655 20.6951 0.668294 20.7293C0.664212 20.7463 0.660508 20.7625 0.657675 20.7767L0.657451 20.7778C0.655857 20.7857 0.649994 20.8146 0.649994 20.8449C0.649994 21.7236 1.18894 22.3709 2.15508 22.8288L2.61719 23.0478L2.59103 23.7196C2.59103 23.7197 2.59103 23.7197 2.59103 23.7197C2.51297 25.7184 3.20672 27.3938 4.69024 28.803C8.69449 32.6067 15.5946 30.8412 17.0155 25.608C17.2619 24.7003 17.2633 23.344 17.0182 22.4405C16.899 22.0008 16.616 21.3013 16.364 20.8065C16.465 20.7825 16.5931 20.7576 16.7389 20.7339C17.1389 20.6689 17.6365 20.6188 17.9996 20.6193C18.3588 20.6199 18.8564 20.6712 19.2574 20.7368C19.4035 20.7608 19.5322 20.7859 19.6339 20.8099C19.3893 21.2907 19.087 22.0248 18.9789 22.42C18.8581 22.8617 18.8012 23.443 18.8019 24.0134C18.8025 24.5838 18.8609 25.1657 18.9827 25.6088C19.3275 26.8629 19.9644 27.9142 20.9209 28.8091C21.6337 29.476 22.0825 29.7795 22.9362 30.1695L23.0401 29.9422L22.9362 30.1695C26.5005 31.798 30.8826 30.4029 32.6597 27.0482C32.9424 26.5145 33.1269 26.083 33.2383 25.6124C33.3494 25.1431 33.3849 24.6477 33.3853 23.9901L33.3857 23.0464L33.8496 22.8265C34.8116 22.3706 35.35 21.7218 35.35 20.8443C35.35 20.8136 35.344 20.7842 35.3423 20.7763L35.3421 20.7752C35.3392 20.7608 35.3354 20.7443 35.3312 20.727C35.3227 20.692 35.3106 20.6455 35.2954 20.5894C35.2649 20.4768 35.2205 20.3192 35.1644 20.1236C35.0519 19.7321 34.8912 19.1847 34.6978 18.5327C34.311 17.2286 33.7927 15.5041 33.2666 13.7676C32.7406 12.031 32.2067 10.282 31.7887 8.92903C31.3738 7.58632 31.0669 6.61281 30.9989 6.44722L30.9989 6.44716C30.9155 6.2442 30.7474 6.02408 30.5646 5.83695C30.3798 5.64764 30.1569 5.46852 29.9433 5.35858L29.9433 5.35858M5.18863 6.66151L29.9433 5.35858M29.9433 5.35858C29.6506 5.20792 29.2884 5.14608 28.936 5.15655C28.5826 5.16706 28.2168 5.25086 27.9138 5.41419L27.9138 5.41419C27.5236 5.62452 27.2289 5.89491 27.0353 6.25302C26.8434 6.60814 26.7622 7.0288 26.7622 7.52195C26.7622 7.76062 26.7642 7.94152 26.8036 8.07828C26.8538 8.25222 26.9576 8.34355 27.063 8.42434C27.2044 8.53276 27.3612 8.61903 27.5415 8.62382C27.7268 8.62875 27.8828 8.54668 28.0187 8.43936L27.8638 8.24316M29.9433 5.35858L33.7425 22.6006C34.6532 22.1691 35.1 21.5909 35.1 20.8443C35.1 20.6281 31.0171 7.14982 30.7676 6.54217C30.6357 6.22103 30.1942 5.76892 29.8289 5.58086C29.3373 5.32784 28.558 5.35097 28.0325 5.63426C27.3203 6.01811 27.0122 6.58821 27.0122 7.52195C27.0122 8.02491 27.0289 8.08319 27.2151 8.22596C27.4656 8.41807 27.6365 8.42265 27.8638 8.24316M27.8638 8.24316L28.0187 8.43936C28.1294 8.35194 28.2067 8.2508 28.2546 8.09032C28.2955 7.95304 28.315 7.77038 28.3337 7.52205C28.358 7.1998 28.3877 7.04988 28.4324 6.95952C28.4663 6.89094 28.517 6.83961 28.6751 6.75993L28.6751 6.75992C29.0342 6.57887 29.4283 6.73026 29.5795 7.13057C29.6901 7.42322 30.7383 10.8249 31.7642 14.1904C32.2759 15.869 32.7803 17.533 33.1568 18.7864C33.3451 19.4131 33.5013 19.9367 33.6103 20.308C33.6649 20.4938 33.7074 20.6407 33.7362 20.7431C33.7507 20.7944 33.7613 20.8334 33.7682 20.8599C33.7693 20.8642 33.7703 20.8679 33.7711 20.8712C33.7673 20.9658 33.7391 21.0359 33.6756 21.1076C33.5968 21.1966 33.4564 21.2958 33.2081 21.4178L32.9453 21.5468M27.8638 8.24316L32.9453 21.5468M32.9453 21.5468C32.8448 21.2647 32.6327 20.8939 32.3853 20.5307C32.1276 20.1524 31.8175 19.762 31.5214 19.4599L31.3428 19.6348M32.9453 21.5468L31.3428 19.6348M31.3428 19.6348L31.5214 19.4598C30.5379 18.4562 29.3538 17.775 27.9553 17.4058L27.8915 17.6475M31.3428 19.6348L27.8915 17.6475M27.8915 17.6475L27.9553 17.4058C27.5093 17.2881 26.768 17.2388 26.0496 17.245C25.331 17.2513 24.5889 17.3137 24.1413 17.439C22.9157 17.7822 21.8509 18.3645 20.9276 19.198L20.5795 19.5122M27.8915 17.6475L20.5795 19.5122M20.5795 19.5122L20.3826 19.444C19.6989 19.207 18.8445 19.0921 18 19.0921C17.1555 19.0921 16.301 19.207 15.6174 19.444L15.4205 19.5122L15.0724 19.198C14.1506 18.3658 13.0894 17.7851 11.8592 17.4377C11.2997 17.2797 11.0134 17.2566 9.91202 17.2572C9.23038 17.2576 8.75929 17.2766 8.33094 17.3479C7.89913 17.4197 7.52058 17.5431 7.02133 17.7406L7.1133 17.973L7.02133 17.7406C5.37234 18.393 3.76804 19.8836 3.1351 21.3725C3.1351 21.3725 3.1351 21.3725 3.13509 21.3725L3.05992 21.5493L2.78518 21.4144C2.54145 21.2948 2.40247 21.1961 2.32422 21.1075C2.26084 21.0357 2.2328 20.9659 2.22886 20.8735C2.22969 20.8702 2.23065 20.8665 2.23175 20.8623C2.23866 20.8357 2.24933 20.7968 2.2638 20.7453C2.29265 20.6429 2.33523 20.4959 2.38983 20.3099C2.49896 19.9383 2.65525 19.4141 2.84367 18.7868C3.22047 17.5323 3.72527 15.8668 4.23714 14.1871C5.26352 10.8191 6.3115 7.41698 6.41997 7.13081C6.48688 6.95436 6.57815 6.84517 6.68032 6.78144C6.78231 6.71783 6.91911 6.68457 7.10426 6.703L7.10431 6.703C7.34881 6.72728 7.44764 6.78626 7.50736 6.86519C7.58092 6.96242 7.6377 7.14324 7.66548 7.51154C7.68457 7.76489 7.70413 7.94991 7.74493 8.08817C7.79272 8.25011 7.87007 8.35152 7.98127 8.43935L7.98133 8.43939C8.11784 8.54715 8.27476 8.62999 8.46208 8.62349C8.64306 8.61722 8.80094 8.52872 8.94427 8.41876M20.5795 19.5122L8.94427 8.41876M8.94427 8.41876L8.94424 8.41879L8.79211 8.2204L8.94427 8.41876ZM11.7993 18.7774L11.7246 19.016C11.0538 18.806 10.1264 18.7132 9.31624 18.7792C6.85575 18.9796 4.76046 20.7049 4.25993 22.8984C4.16842 23.2994 4.13685 23.8093 4.16394 24.3137C4.1911 24.8191 4.2761 25.2988 4.40532 25.6422L4.17133 25.7303L4.40532 25.6422C5.28164 27.9712 7.64864 29.4523 10.2669 29.2856L10.2669 29.2856C11.1837 29.2273 11.701 29.0934 12.5398 28.6971L12.5398 28.6971C13.3368 28.3206 14.085 27.7326 14.5425 27.1326L11.7993 18.7774ZM11.7993 18.7774L11.7246 19.016C14.5281 19.8935 16.1539 22.5978 15.5096 25.22M11.7993 18.7774L15.5096 25.22M15.5096 25.22C15.4528 25.4508 15.3087 25.8026 15.124 26.1687M15.5096 25.22L15.124 26.1687M15.124 26.1687C14.9405 26.5326 14.7273 26.89 14.5425 27.1326L15.124 26.1687ZM19.9811 20.6938C19.7377 21.1072 19.3427 22.0376 19.22 22.486L19.9811 20.6938ZM27.7161 18.9482L27.7778 18.706L27.7161 18.9482C29.6712 19.4465 31.2992 21.0525 31.7418 22.8972C31.8299 23.2647 31.8608 23.756 31.8342 24.2565C31.8075 24.7568 31.7245 25.2459 31.597 25.6092L31.597 25.6092C30.7847 27.9252 28.3758 29.4505 25.7326 29.2869L25.7172 29.5364L25.7326 29.2869C23.2134 29.1309 21.1303 27.5208 20.5058 25.2848C20.4227 24.9873 20.3759 24.5208 20.3741 24.0382C20.3722 23.5555 20.4154 23.0891 20.4961 22.7917L20.4961 22.7917C20.8836 21.3644 22.0074 20.0439 23.4638 19.3269C24.6468 18.7446 26.3184 18.592 27.7161 18.9482Z" fill="white" stroke="white" stroke-width="0.5"/>
</svg>
