<svg width="63" height="51" viewBox="0 0 63 51" fill="none" xmlns="http://www.w3.org/2000/svg">
<g clip-path="url(#clip0_298_1220)">
<path d="M32.0501 49.2865C34.0088 49.2865 35.5967 48.3395 35.5967 47.1713C35.5967 46.0032 34.0088 45.0562 32.0501 45.0562C30.0913 45.0562 28.5034 46.0032 28.5034 47.1713C28.5034 48.3395 30.0913 49.2865 32.0501 49.2865Z" fill="#19A3DD"/>
<path d="M39.8919 30.0266H21.9302V47.1718H39.8919V30.0266Z" fill="#19A3DD"/>
<path d="M30.9409 37.5559C31.0607 36.9283 31.3824 36.3569 31.8572 35.9287C32.3278 35.5003 32.868 35.1551 33.4547 34.9081C34.5749 34.3977 35.7825 34.1023 36.9498 33.7083C37.5332 33.5182 38.1016 33.2848 38.6503 33.01C38.9232 32.8893 39.1774 32.7302 39.4053 32.5377C39.5756 32.3743 39.7391 32.202 39.9206 32.052C40.4068 31.6536 40.5771 32.1998 40.5681 32.6227C40.5524 33.2942 40.0908 33.8023 39.5353 34.1605L38.5629 34.7894L39.5173 34.3127C39.9071 34.118 40.5815 34.626 40.6375 35.0088C40.6799 35.3361 40.6002 35.6676 40.4135 35.9399C40.2815 36.0762 40.1384 36.2012 39.9856 36.3137L39.2619 36.448C39.5599 36.4211 39.9721 36.26 40.2432 36.448C40.6801 36.7501 41.0386 37.6096 40.6734 38.2095C40.5611 38.3708 40.4176 38.5079 40.2514 38.6129C40.0852 38.7178 39.8995 38.7884 39.7055 38.8206C39.5353 38.8496 39.3426 38.8496 39.3426 38.8608C39.3426 38.872 40.0147 38.7199 40.3844 39.0354C40.7159 39.3241 40.7137 39.9307 40.5457 40.356C40.4593 40.5553 40.3303 40.7334 40.1677 40.8776C40.0052 41.0218 39.813 41.1288 39.6047 41.1909C39.3079 41.2675 38.9946 41.2495 38.7085 41.1394L38.3792 41.0006C38.6032 41.1036 38.9303 41.1954 39.0961 41.37C39.2286 41.5621 39.2837 41.7971 39.2507 42.028C39.1924 42.5204 38.7825 43.0106 38.2425 42.986C38.0674 42.9846 37.8941 42.9504 37.7317 42.8853C38.005 42.9412 38.1417 42.9905 38.1417 43.0375C38.1417 43.0845 38.0543 43.1091 37.8863 43.1404C37.1245 43.2031 36.1073 43.2702 35.023 43.2859C34.5075 43.3063 33.9913 43.2967 33.477 43.2568C33.1567 43.2568 32.7803 43.3172 32.4868 43.1718C32.442 43.1493 32.4554 42.9703 32.4286 42.9233C32.3165 42.7129 32.0566 42.6748 31.8438 42.6592C31.4741 42.6278 31.3688 42.883 31.0574 42.9994C31.026 41.7534 30.9954 40.5067 30.9655 39.2593L30.9319 37.8447C30.9271 37.7483 30.9301 37.6518 30.9409 37.5559Z" fill="white" stroke="#19A3DD" stroke-width="0.171162" stroke-miterlimit="10"/>
<path d="M38.5633 34.7898C38.0637 35.1009 37.2191 35.5441 37.0936 36.1663C37.0062 36.5692 37.5417 36.5133 37.7814 36.5065L39.2377 36.4551C38.8277 36.4685 38.4155 36.5535 38.0054 36.5826C37.6281 36.5782 37.2516 36.6218 36.8852 36.7124C36.7571 36.7514 36.6382 36.8156 36.5354 36.9013C36.4327 36.9871 36.3482 37.0926 36.287 37.2116C36.1033 37.6123 36.3206 38.1069 36.6768 38.3665C37.4476 38.9239 38.3975 38.6083 39.2444 38.85C38.4759 38.85 37.7276 38.8209 36.9614 38.7717C36.8754 38.7584 36.7876 38.7623 36.7032 38.7832C36.6187 38.8041 36.5392 38.8415 36.4694 38.8934C36.3995 38.9452 36.3407 39.0105 36.2963 39.0852C36.252 39.16 36.2229 39.2429 36.2109 39.329C36.1302 40.3205 37.6985 40.6876 38.3684 41.001C37.6963 40.7771 36.9032 40.3519 36.1907 40.5712C35.402 40.8175 35.6373 41.677 36.1213 42.1224C36.5693 42.5275 37.1653 42.6954 37.7209 42.8856" stroke="#19A3DD" stroke-width="0.171162" stroke-miterlimit="10"/>
<path d="M31.1573 43.0676L28.7142 46.1882C28.3963 46.5943 28.4677 47.1806 28.8736 47.4977C29.2796 47.8149 29.8664 47.7429 30.1842 47.3369L32.6274 44.2163C32.9452 43.8103 32.8738 43.2239 32.4679 42.9068C32.062 42.5896 31.4752 42.6616 31.1573 43.0676Z" fill="white" stroke="#19A3DD" stroke-width="0.171162" stroke-miterlimit="10"/>
<path d="M23.4513 41.0856V41.0207C23.445 40.3777 23.5089 39.7361 23.6418 39.107C23.7829 38.4713 24.0338 37.8737 24.0898 37.2178C24.2175 35.8749 24.157 34.5051 24.4125 33.1733C24.4395 32.9893 24.4962 32.8109 24.5805 32.6451C24.753 32.3384 25.1272 32.1705 25.4027 32.4571C25.4907 32.5593 25.5618 32.6749 25.6133 32.7995C25.882 33.2922 26.0352 33.8394 26.0615 34.3999C26.0584 34.8903 25.983 35.3775 25.8374 35.8458C25.6559 36.4793 25.4476 36.8262 25.5372 36.8888C25.6268 36.9515 25.9628 36.6874 26.2093 36.383C26.3773 36.1592 26.4333 35.9219 26.8815 34.7759C26.9934 34.4738 27.0674 34.1425 27.3094 33.9119C27.3908 33.8256 27.4913 33.7593 27.6029 33.7187C27.7144 33.678 27.834 33.6639 27.952 33.6777C28.07 33.6913 28.1831 33.7324 28.2824 33.7976C28.3817 33.8628 28.4643 33.9502 28.5237 34.053C28.6592 34.2904 28.736 34.5566 28.7477 34.8297C28.7477 34.9415 28.8105 35.6354 28.7231 35.6914C29.0323 35.4989 29.5498 35.2773 29.9173 35.4385C30.4348 35.6623 30.2668 36.5419 30.2466 36.9851C30.2466 37.2224 30.6454 36.8776 31.2458 36.9493C31.4353 36.9494 31.621 37.0029 31.7813 37.1037C32.0883 37.3276 32.1913 37.8021 32.1913 38.1647V38.5138C32.1913 38.1132 32.9844 38.1669 33.157 38.3661C33.4101 38.6593 33.1793 39.2816 33.0808 39.5972C32.8185 40.3292 32.4767 41.0302 32.0614 41.6877C31.7365 42.2495 31.4273 42.8069 31.1293 43.391C30.856 43.917 30.5917 44.3803 30.5087 44.9802C30.4564 45.4581 30.4354 45.9388 30.446 46.4194C30.446 47.6975 30.4303 48.9263 30.6701 50.1886L30.7082 50.3229C30.4741 50.3155 30.2399 50.3229 30.0069 50.3454C29.5339 50.3521 29.0616 50.3093 28.5976 50.2177C27.5872 50.0298 26.4356 49.638 25.6201 48.989C25.172 48.642 24.4192 48.1787 24.3609 48.0041C24.3184 47.8743 24.4125 47.7131 24.4506 47.5945C24.5658 47.1954 24.6291 46.7832 24.6387 46.368C24.6545 46.0255 24.7396 45.5442 24.6096 45.2175C24.5628 45.1222 24.505 45.0327 24.4371 44.9511C24.1472 44.5199 23.9053 44.0583 23.7157 43.5745C23.3998 42.8359 23.4491 41.8847 23.4513 41.0856Z" fill="white" stroke="#19A3DD" stroke-width="0.171162" stroke-miterlimit="10"/>
<path d="M10.6413 5.24536L9.70312 5.79323L12.7244 10.9564L13.6625 10.4085L10.6413 5.24536Z" fill="#19A3DD"/>
<path d="M12.254 4.44827L11.8301 3.73413L7.62012 6.22835L8.04403 6.9425L12.254 4.44827Z" fill="#19A3DD"/>
<path d="M27.408 6.2805L26.3685 6.36331L23.7673 3.66395L22.9742 4.71147L22.954 4.6958L23.3349 6.93632L22.2618 7.11763L21.1841 0.783298L22.255 0.602L22.7681 3.608L23.1848 3.05962L23.6777 2.40829L25.4275 0.0983887H26.4693L24.2602 3.01486L27.408 6.2805Z" fill="#19A3DD"/>
<path d="M55.2142 6.49357L54.3965 7.72461L53.1755 9.56225C52.9507 9.96378 52.6392 10.3101 52.2636 10.5762C51.8579 10.8301 51.3756 10.9332 50.9014 10.8671C50.3099 10.7709 49.8461 10.3837 49.425 9.97182C49.2757 9.82836 49.1378 9.6734 49.0127 9.5085L49.5459 8.9288C49.6951 9.18864 49.8938 9.41677 50.1307 9.6003C50.5071 9.88453 51.0022 10.1129 51.4749 9.94723C51.7513 9.82876 51.9856 9.62986 52.1471 9.37649C52.8663 8.40285 53.3748 7.3038 54.0402 6.29884L54.094 6.24289L52.0216 4.87082L52.4809 4.1792L55.4383 6.13769C55.4383 6.13769 55.2142 6.49134 55.2142 6.49357Z" fill="#1CA3DD"/>
<path d="M41.1083 6.91403L40.0822 6.72598L38.2652 3.44918L37.2301 4.25719L37.2144 4.23481L37.0038 6.49771L35.9194 6.39698L36.5131 0L37.5953 0.100722L37.3152 3.13806L37.8596 2.71502L38.5027 2.21141L40.7902 0.431987L41.7961 0.700577L38.9104 2.94781L41.1083 6.91403Z" fill="#19A3DD"/>
<path d="M31.5977 49.9896C48.3257 49.9896 61.8864 40.4185 61.8864 28.6118C61.8864 16.8053 48.3257 7.23413 31.5977 7.23413C14.8698 7.23413 1.30908 16.8053 1.30908 28.6118C1.30908 40.4185 14.8698 49.9896 31.5977 49.9896Z" stroke="#19A3DD" stroke-width="2.39627" stroke-miterlimit="10"/>
<path d="M31.6561 49.3557C40.2497 49.3557 47.2161 40.3116 47.2161 29.1552C47.2161 17.9988 40.2497 8.95483 31.6561 8.95483C23.0626 8.95483 16.0962 17.9988 16.0962 29.1552C16.0962 40.3116 23.0626 49.3557 31.6561 49.3557Z" stroke="#19A3DD" stroke-width="2.39627" stroke-miterlimit="10"/>
<path d="M31.7677 49.9896C44.593 49.9896 54.99 40.4185 54.99 28.6118C54.99 16.8053 44.593 7.23413 31.7677 7.23413C18.9424 7.23413 8.54541 16.8053 8.54541 28.6118C8.54541 40.4185 18.9424 49.9896 31.7677 49.9896Z" stroke="#19A3DD" stroke-width="2.39627" stroke-miterlimit="10"/>
<path d="M61.1896 27.9961H1.95654V29.2272H61.1896V27.9961Z" fill="#19A3DD"/>
<path d="M39.8942 27.4365H38.3774V30.2075H39.8942V27.4365Z" fill="#19A3DD"/>
<path d="M25.2573 27.3408H23.9287V30.1856H25.2573V27.3408Z" fill="#19A3DD"/>
<path d="M32.3547 27.2266H30.8379V29.9976H32.3547V27.2266Z" fill="#19A3DD"/>
<path d="M40.071 9.45435H22.6807V27.2553H40.071V9.45435Z" fill="white" stroke="#19A3DD" stroke-width="1.02697" stroke-miterlimit="10"/>
<path d="M39.9075 26.4651L39.5132 26.7068L36.5872 21.7826L36.39 21.4469L36.3676 21.4111C36.231 21.1872 36.101 20.9455 35.9598 20.715C35.8797 20.5504 35.7485 20.4161 35.5857 20.3322C35.508 20.3023 35.4245 20.2901 35.3415 20.2964C35.3008 20.2979 35.2603 20.3032 35.2205 20.3121L35.1802 20.3255C35.0499 20.3698 34.9378 20.4555 34.8609 20.5694C34.7841 20.6835 34.7467 20.8195 34.7545 20.9567V20.9679C34.6017 21.0478 34.4289 21.082 34.2571 21.0663C34.2571 21.0418 34.2571 21.0149 34.2571 20.9858C34.2486 20.8081 34.2833 20.631 34.3582 20.4696C34.4331 20.3082 34.546 20.1674 34.6873 20.0592C34.8301 19.9457 34.9986 19.8689 35.1779 19.8353C35.3037 19.8108 35.433 19.8108 35.5588 19.8353C35.8562 19.9189 36.1157 20.1022 36.2937 20.3546C36.3778 20.4725 36.4527 20.5968 36.5177 20.7261L36.9815 21.5163C37.1712 21.8385 37.3624 22.1609 37.5551 22.4832L38.1196 23.4322L38.7 24.4103L39.2332 25.3056L39.6566 26.0174L39.9053 26.436L39.9075 26.4651Z" fill="#19A3DD"/>
<path d="M32.2452 14.6314C33.1559 14.6314 33.8941 13.8939 33.8941 12.984C33.8941 12.0742 33.1559 11.3367 32.2452 11.3367C31.3345 11.3367 30.5962 12.0742 30.5962 12.984C30.5962 13.8939 31.3345 14.6314 32.2452 14.6314Z" fill="#19A3DD"/>
<path d="M35.2204 20.3101C35.2026 20.4338 35.1586 20.5523 35.0914 20.6576C35.0242 20.763 34.9352 20.8529 34.8305 20.9212C34.806 20.9374 34.7805 20.9524 34.7544 20.966C34.5573 21.0699 34.3285 21.0968 34.1127 21.0413C33.8969 20.9859 33.7095 20.8521 33.5871 20.666L30.8761 16.5678C30.8111 16.4693 30.7662 16.359 30.7438 16.2431C30.7215 16.1273 30.7221 16.0082 30.7459 15.8927C30.7937 15.6593 30.9325 15.4545 31.1316 15.3233C31.3306 15.1921 31.5737 15.1453 31.8073 15.1931C31.923 15.2168 32.0329 15.263 32.1306 15.3291C32.2284 15.3953 32.3123 15.48 32.3772 15.5784L35.0859 19.6722C35.1204 19.7241 35.149 19.7797 35.1711 19.8378C35.2316 19.9876 35.2487 20.1512 35.2204 20.3101Z" fill="#19A3DD"/>
<path d="M35.8476 27.0963C35.6424 27.2325 35.3928 27.2851 35.15 27.2435C34.9072 27.2019 34.6894 27.0691 34.5414 26.8724L31.7251 23.0517L29.1285 26.8343C28.9853 27.0338 28.7714 27.1711 28.5304 27.2186C28.2894 27.266 28.0394 27.2198 27.8312 27.0895C27.7294 27.0285 27.6411 26.9473 27.5719 26.8509C27.5026 26.7545 27.4537 26.645 27.4283 26.5291C27.4029 26.4132 27.4016 26.2933 27.4242 26.1768C27.4469 26.0604 27.4931 25.9498 27.5602 25.8517L30.8625 21.0507L31.2838 20.4866L31.7028 19.9226L32.1239 20.4866L32.5429 21.0507H32.525C32.557 21.0816 32.5862 21.1154 32.6124 21.1514L36.0739 25.8517C36.1443 25.9471 36.1945 26.0558 36.2213 26.1712C36.2481 26.2866 36.251 26.4063 36.2298 26.5229C36.2086 26.6394 36.1638 26.7505 36.0981 26.8491C36.0323 26.9477 35.9471 27.0318 35.8476 27.0963Z" fill="#19A3DD"/>
</g>
<defs>
<clipPath id="clip0_298_1220">
<rect width="63" height="51" fill="white"/>
</clipPath>
</defs>
</svg>
