<svg width="376" height="338" viewBox="0 0 376 338" fill="none" xmlns="http://www.w3.org/2000/svg">
<path d="M263.098 337.369L249.453 337.452L237.555 337.369L221.331 337.286H207.437L193.459 337.369L191.795 336.953L191.379 335.036L190.63 301.13L192.96 299.13L193.958 298.047L196.288 294.465L204.192 284.134L203.526 280.885L195.622 271.138L175.488 248.145L171.578 245.729L158.099 240.48L152.109 238.231L146.867 233.566L128.147 213.488L80.224 162.669L69.1584 151.173L60.1728 141.925L58.176 139.843L46.528 138.843L19.488 141.009L16.992 140.759L16.4928 140.259L16.2432 126.263L15.9104 101.854L15.4944 78.6936L15.4112 77.6939L15.1616 76.9441L14.3296 76.6109L2.76482 76.2776L2.016 76.111L1.68318 75.6111L1.6 74.6947L1.26718 24.7924L1.68318 24.7091L44.1152 24.6258L44.864 23.0429L45.1968 21.8766L45.4464 8.46381V6.96424L45.8624 6.38108L46.0288 6.5477L46.1952 7.21417L46.528 7.96395L50.0224 7.38079H51.0208L57.0944 11.7129L59.424 12.6293L61.6704 12.546L63.6672 11.5463L65.3312 9.71345L66.4128 7.29747L67.8272 6.46438L68.4096 3.71517L69.2416 2.04898L70.5728 1.46582L72.736 1.71575L78.3936 3.21532L83.4688 5.38136L96.5312 15.0452L97.696 16.3782L101.939 23.6261L102.438 24.8758L102.688 26.4586L102.771 31.957L103.104 33.0401L102.688 33.6232L103.27 35.2061L105.184 41.7042L105.85 45.2032L106.266 46.8694L106.931 47.8691L108.845 50.0352L109.51 51.1182L110.675 55.8668L111.507 57.4497L113.67 60.3655L114.003 61.1153L114.502 62.8648L114.835 63.5313L116.166 64.4477L118.912 65.3641L123.738 68.1133L124.32 68.7798L124.486 72.0288L124.819 73.4451L126.317 76.5275L126.816 77.9438L127.066 79.4434V81.4428L127.315 83.0257L129.146 86.9412L129.395 88.6074L129.062 89.9404L128.563 91.3566L128.314 93.0228L128.48 94.7723L129.478 99.1044L130.144 101.104L134.304 106.436L134.97 106.769L138.298 110.185L153.107 120.848L162.592 127.68L181.894 141.509L190.048 147.257L193.709 150.839L200.032 159.67L203.526 163.336L210.016 168.001L227.571 180.664L229.318 181.581L231.066 181.914L232.563 181.581L237.139 179.248L238.886 179.081L240.301 179.914L245.376 186.579L257.69 196.993L265.178 201.325L273.747 204.407L277.658 206.907L290.97 219.07L298.874 224.402L314.266 234.899L318.259 236.232L322.253 235.898L323.75 235.065L326.579 232.733L328.243 232.066L330.24 232.233L336.147 235.149L339.974 235.732L341.638 236.648L345.216 239.564L349.043 240.647L350.957 241.48L352.621 243.146L355.366 246.645L361.274 249.394L363.104 249.978H367.597L369.843 250.561L371.923 251.644L373.92 253.06L375.168 256.642L373.005 260.808L369.76 265.057L367.763 268.722L367.514 271.638L368.013 277.386L367.763 280.386L366.515 285.384L366.266 287.967L367.098 290.049L368.179 291.049L369.178 292.049L369.344 293.215L368.429 294.798L367.347 295.881L366.432 297.131L366.349 298.547L367.763 299.63L366.848 300.296L365.766 301.213L364.851 302.213L364.435 302.546L363.77 302.712L363.104 302.296L362.189 301.046L361.606 300.713L360.192 300.88L356.198 302.213L354.618 302.046L353.453 301.213L352.454 300.213L351.539 299.713L351.04 299.547L350.208 298.88L349.542 298.714L347.629 298.797L346.963 298.714L345.798 298.13L344.8 297.131L343.136 294.881L342.054 293.965L328.992 289.05L327.827 288.217L326.995 287.05L325.997 284.801L325.498 284.468L324.333 284.218L323.501 283.801L323.002 286.8L322.17 287.467H319.757L318.758 287.633L318.093 288.133L317.51 288.883L316.179 291.549L315.597 293.132L315.264 294.798L315.763 297.88V299.547L315.43 301.046L314.682 302.046L313.101 303.795L310.355 307.544L308.275 308.627L282.65 309.294L278.323 310.71L267.757 316.458L266.093 317.791L265.011 319.624L264.678 322.457L265.843 328.038L266.093 330.954L265.261 333.37L263.098 337.369Z" fill="#19A3DD" stroke="white" stroke-linecap="round" stroke-linejoin="round"/>
</svg>
