<svg width="251" height="324" viewBox="0 0 251 324" fill="none" xmlns="http://www.w3.org/2000/svg">
<path d="M250.098 199.369L243.858 210.949L242.859 213.282L242.11 216.114L241.944 217.614V219.113L242.277 220.613L243.026 223.362L243.192 224.862L242.942 227.777L242.277 230.527L241.278 233.026L236.619 240.107L235.454 241.607L233.541 243.19L231.544 243.856L227.218 244.939L226.219 245.356L225.304 245.939L224.638 246.855L223.64 249.771L223.058 250.271L222.392 250.021L221.394 249.688L218.981 249.271L216.818 249.688L214.738 250.688L210.91 253.687L210.162 254.603L209.662 255.769V257.019L210.245 260.435L210.162 261.351L204.587 259.185L203.006 258.852L201.093 259.102L199.346 259.685L193.854 262.934L191.525 263.517L184.286 264.017L183.122 264.267L182.04 264.85L181.208 265.683L179.877 267.599L178.962 268.349L174.219 270.598L169.144 271.681L156.414 271.432L155.166 271.681L154.251 272.598L154.002 273.848L154.418 274.764L155 275.68L155.25 277.013L155.666 277.93L158.661 280.596L159.493 281.762L159.826 282.095L161.323 282.678L161.656 283.012L161.573 283.511L161.24 284.178L159.659 285.344L155.166 286.844L153.586 288.427L153.502 289.426L153.586 293.175L153.835 294.008L154.75 294.841L155 295.591L154.418 297.841L154.168 300.59L153.752 301.923L153.003 302.756L151.838 303.006L149.426 303.256L148.261 303.506L144.35 305.422L139.026 309.671L135.115 311.587L133.534 313.086L132.869 314.169L132.037 314.919L131.205 315.419L126.962 317.252L125.963 317.502L125.464 317.418L123.717 316.669L123.134 316.752L121.97 316.918L121.304 316.585L117.477 313.003L115.896 313.17L113.982 314.919L108.325 322.667L107.41 323.167L106.744 322.417L105.662 319.834L105.33 318.751L105.413 315.835L105.33 314.586L104.914 313.336L104.331 312.17L103.499 311.253L100.254 309.837L98.5904 308.754L92.6 302.839L91.1024 301.756L89.3552 300.923L85.944 300.84L78.9552 303.339L75.4608 303.589L67.5568 302.339L63.7296 300.84L60.984 297.757L57.24 294.258L56.7408 294.092L57.3232 293.425L57.9888 292.509L58.488 292.009L60.4848 290.676L60.984 290.259L62.8144 288.177L63.064 287.51L63.2304 286.511L63.7296 281.095L63.9792 280.346L64.3952 279.846L65.6432 278.596L65.8928 278.096L65.3104 277.513L64.3952 276.93L62.0656 274.347L61.2336 273.598L60.4016 272.515L60.0688 272.015L59.0704 270.015V269.099L59.4864 268.266L60.3184 267.599L61.4 267.349H63.2304L64.312 267.016L65.3936 266.183L65.976 265.933L66.8912 265.1L67.0576 264.767L66.8912 261.184L66.4752 260.685L63.8128 260.518L62.5648 259.768L62.1488 256.019L61.7328 212.948L58.9872 206.45L45.4256 183.623L43.3456 180.208L32.4464 162.463L32.3632 161.963L33.1952 161.713L35.7744 161.547L37.0224 161.297H37.8544L40.4336 161.796L41.3488 162.213L42.4304 163.296L43.2624 164.546L44.6768 167.045L45.2592 168.794L45.6752 170.377V174.043L46.008 174.543L47.1728 175.792L48.1712 176.292L49.0032 176.542L49.9184 176.625L51.5824 176.459L52.9968 176.042L54.4944 175.043L54.8272 174.709L55.576 173.71L56.1584 172.71L56.5744 171.544L56.824 170.711L56.9072 169.378L56.7408 168.544L56.1584 167.295L55.6592 166.712L54.6608 166.212L52.0816 165.629L50.3344 165.712L50.0016 165.795L48.2544 166.545L46.5904 167.378L46.424 167.295L43.512 161.963L42.5968 160.88L41.848 160.547L41.016 160.38L35.8576 160.047L34.6928 160.297L33.3616 160.214H31.5312L30.7824 160.047L30.1168 159.63L25.9568 142.885L25.8736 139.053L26.456 136.887L27.6208 136.804L28.6192 136.387L29.2848 135.554L28.7856 133.388L25.8736 125.057L25.7072 124.057L26.2064 123.641L27.1216 123.391L29.6176 123.058L30.616 122.641L31.1984 121.975L30.6992 120.392L26.04 110.894L23.7104 107.395L8.984 92.0665L7.90241 88.7341L0.664001 58.2429L3.74241 58.5761L4.74082 58.4928L5.656 58.0763L6.15518 56.91L6.488 55.6603L7.736 47.9126L7.98559 46.7462L8.48482 45.8298L9.48318 45.4133L13.144 44.8301L14.1424 44.247L14.7248 42.914L15.1408 41.6644L18.8016 21.0869L20.632 18.671L28.2032 16.3383L31.9472 15.5052L32.4464 14.0056L33.1952 12.756L33.528 0.842773L45.176 1.84247L47.1728 3.9252L56.1584 13.1725L67.224 24.6693L115.147 75.488L133.867 95.5655L139.109 100.231L145.099 102.48L158.578 107.729L162.488 110.145L182.622 133.138L190.526 142.885L191.192 146.134L183.288 156.465L180.958 160.047L179.96 161.13L177.63 163.129L178.379 197.036L178.795 198.952L180.459 199.369L194.437 199.286H208.331L224.555 199.369L236.453 199.452L250.098 199.369Z" fill="#012A4A" stroke="white" stroke-linecap="round" stroke-linejoin="round"/>
</svg>
