<svg width="296" height="349" viewBox="0 0 296 349" fill="none" xmlns="http://www.w3.org/2000/svg">
<path d="M231.992 56.7593L234.488 57.0092L261.528 54.8432L261.195 66.7564L260.446 68.0061L259.947 69.5056L256.203 70.3387L248.632 72.6714L246.802 75.0873L243.141 95.6648L242.725 96.9144L242.142 98.2474L241.144 98.8305L237.483 99.4137L236.485 99.8302L235.986 100.747L235.736 101.913L234.488 109.661L234.155 110.91L233.656 112.077L232.741 112.493L231.742 112.577L228.664 112.243L235.902 142.735L236.984 146.067L251.71 161.396L254.04 164.895L258.699 174.392L259.198 175.975L258.616 176.641L257.618 177.058L255.122 177.391L254.206 177.641L253.707 178.058L253.874 179.057L256.786 187.388L257.285 189.554L256.619 190.387L255.621 190.804L254.456 190.887L253.874 193.053L253.957 196.886L258.117 213.631L258.782 214.047L259.531 214.214H261.362L262.693 214.297L263.858 214.047L269.016 214.381L269.848 214.547L270.597 214.88L271.512 215.963L274.424 221.295L274.59 221.379L276.254 220.545L278.002 219.796L278.334 219.712L280.082 219.629L282.661 220.212L283.659 220.712L284.158 221.295L284.741 222.545L284.907 223.378L284.824 224.711L284.574 225.544L284.158 226.71L283.576 227.71L282.827 228.71L282.494 229.043L280.997 230.043L279.582 230.459L277.918 230.626L277.003 230.543L276.171 230.293L275.173 229.793L274.008 228.543L273.675 228.043V224.378L273.259 222.795L272.677 221.045L271.262 218.546L270.43 217.296L269.349 216.213L268.434 215.797L265.854 215.297H265.022L263.774 215.547L261.195 215.714L260.363 215.963L260.446 216.463L271.346 234.208L273.426 237.624L286.987 260.451L289.733 266.949L290.149 310.02L290.565 313.769L291.813 314.518L294.475 314.685L294.891 315.185L295.058 318.767L294.891 319.1L293.976 319.934L293.394 320.183L292.312 321.017L291.23 321.35H289.4L288.318 321.6L287.486 322.266L287.07 323.099V324.016L288.069 326.015L288.402 326.515L289.234 327.598L290.066 328.348L292.395 330.93L293.31 331.514L293.893 332.097L293.643 332.597L292.395 333.846L291.979 334.346L291.73 335.096L291.23 340.511L291.064 341.511L290.814 342.177L288.984 344.26L288.485 344.676L286.488 346.009L285.989 346.509L285.323 347.426L284.741 348.092L283.659 347.759L283.16 347.509L282.411 346.509L282.661 345.176L281.746 344.343L281.496 344.26L280.747 343.677L281.33 342.677L280.331 341.927H279.832L276.754 342.51L276.005 342.844L274.59 340.594L273.758 339.011L273.592 337.095L273.842 336.595L274.674 335.846L274.84 335.346V333.68L275.173 331.93V331.264L274.84 330.68L275.173 329.098V327.931L274.923 326.848L274.674 324.266L274.341 322.933L273.758 321.766L273.176 320.767L272.261 319.6L271.262 318.684L270.014 318.017L268.6 317.767L267.851 317.434L268.517 316.601L269.682 315.601L270.43 314.852V314.102L270.181 312.686L270.43 311.769L270.763 311.436L271.845 310.853L272.011 310.103L272.178 308.687L272.344 308.104L273.259 306.771V305.938L273.093 303.772L272.261 299.273L271.346 297.857L271.179 297.107V295.441L271.096 294.691L270.846 293.941L270.181 293.025L269.765 292.691L269.182 292.441L269.598 291.442L268.766 289.359L269.099 285.777L270.43 279.945L270.014 278.862L269.931 277.946L270.181 277.196L270.846 275.946L271.096 275.113L271.179 274.197L271.096 273.28L270.43 271.531L269.931 269.032L267.518 268.698L264.606 268.198L251.71 268.448L221.758 268.948L219.845 267.865L218.68 265.782L216.933 261.284L215.685 259.284L209.528 251.703L206.866 247.538L204.619 242.872L202.872 240.54L200.709 239.54L195.883 238.707L193.803 237.457L189.893 234.208L181.49 231.459L180.907 231.376L180.325 231.709L179.659 232.792L179.243 233.209L178.661 233.292L177.912 232.709L177.496 231.459L177.246 230.126L176.83 228.96L175.832 227.877L175 227.71L173.086 228.46H172.67L172.171 228.21L171.256 227.46L170.341 227.21L170.174 226.627L170.424 225.544L170.757 224.711L170.424 224.211L169.342 223.045L165.682 219.962L165.016 218.963L163.851 213.881L163.685 212.298L163.851 211.465L164.517 210.132L164.018 208.716L164.184 207.049L163.851 206.05L162.77 204.467L161.605 203.384L160.274 203.051L156.946 204.55L155.698 204.383L147.877 198.802L146.046 196.802L145.381 196.386L143.634 196.136L142.885 195.886L142.053 195.303L139.723 194.22L135.23 193.22L131.736 191.221L131.403 191.72L131.237 192.887L130.488 193.803L129.822 194.053H129.24L127.992 193.803H127.326L126.578 194.636L126.078 194.969L124.747 195.053L123.416 194.886L120.92 193.803L117.925 191.221L117.01 190.721L115.845 190.804L114.93 191.471L114.264 192.47L113.682 193.72L112.933 194.969L111.934 195.469L106.61 195.969L105.778 195.803L104.28 194.636L103.531 194.303L98.9552 193.637L97.9568 193.22L96.9584 192.387L96.7088 191.554V190.554L96.5424 189.221L96.376 188.638L95.3776 186.889V186.305L95.4608 185.306L95.0448 184.806L94.0464 184.306L93.1312 184.056L91.1344 183.889L87.3072 182.973L78.1552 178.558L76.0752 178.058L75.16 178.141L74.1616 178.308L73.2464 178.391L72.3312 178.058L71.9984 177.558L71.4992 176.475L71.0832 176.058L70.584 175.975L69.5856 176.142H69.0864L68.3376 175.642L67.672 174.975L66.84 174.475H66.008L65.0928 174.725L62.264 174.809L59.2688 173.892L58.2704 173.809L57.272 173.976L56.3568 174.225L55.4416 174.392L47.0384 170.976L45.5408 169.06L46.7056 165.061L46.872 163.895L46.6224 162.562L45.2912 160.729L44.6256 158.563L42.712 156.481L42.0464 155.398L40.9648 152.815L39.6336 150.566L39.384 149.899L39.2176 148.816L38.552 148.4L37.304 147.983L36.7216 147.9L36.056 147.983L35.0576 148.483L34.5584 149.066L29.4832 144.068L23.9088 140.235L22.9936 139.402L21.7456 137.403L21.496 136.82L20.8304 134.404L20.4144 133.904L19.9984 133.737L19.0832 133.904L17.4192 134.57L16.2544 134.654L14.7568 133.904L13.9248 133.82L12.76 133.904L9.848 134.82H9.0992L8.184 134.487L4.856 132.821L3.94079 132.571L2.69279 132.487L2.0272 132.071L1.44479 131.071L1.36159 129.905L1.944 122.907L2.27679 121.741L2.69279 121.241L4.19041 120.574L4.68959 119.824L4.77279 119.075L4.5232 117.492L4.9392 116.076L6.52 113.326L6.936 112.16L7.0192 111.077L7.352 109.244L25.1568 50.8443L25.5728 50.0112L25.9056 49.678L27.32 48.8449L31.064 47.4287L32.1456 46.5123L32.4784 45.9291L32.3952 45.096L27.4864 26.2681L26.7376 21.6861L26.5712 21.1029L25.8224 19.77L25.4896 18.6036L25.656 17.354L25.9888 16.7708L29.0672 14.4382L36.1392 10.7725L36.472 11.6889L37.304 12.4387L39.4672 12.9386L40.1328 13.3551L41.2144 14.6881L41.7968 15.1879L42.7952 15.3546L46.456 14.938L47.288 14.5215L49.4512 12.2721L50.7824 11.439L54.5264 10.0228L78.1552 10.4393L85.0608 9.4396L99.288 5.27413L105.611 5.94059L106.693 5.77398L107.109 5.0242L106.859 3.02477L107.026 2.19167L107.192 1.85844L107.774 1.52521L108.19 1.44189H112.85L116.677 2.52492L119.339 3.60794L142.635 9.4396L145.547 13.4384L146.296 14.1049L149.79 16.5209L154.117 17.5206L168.843 17.7705H200.709L201.458 17.9371L201.79 18.2704L201.874 19.1035V43.5964L202.04 44.5128L202.456 45.2626L205.867 49.2615L206.699 49.5114L207.781 49.2615L209.195 48.6783L209.694 48.0951L210.443 47.1787L210.942 46.6789H212.357L213.938 47.0954H215.352L216.517 46.3456L217.349 46.179L217.848 46.5123L218.514 47.262L219.013 48.2618L219.179 48.9282L219.595 51.5941L220.011 53.3436L220.76 54.4266L221.342 54.9265L222.091 55.8429L222.424 57.4258L222.59 57.6757L224.504 57.9256L231.992 56.7593Z" fill="#012A4A" stroke="white" stroke-linecap="round" stroke-linejoin="round"/>
</svg>
