<svg width="263" height="260" viewBox="0 0 263 260" fill="none" xmlns="http://www.w3.org/2000/svg">
<path d="M262.446 123.964V125.464L262.197 138.877L261.864 140.043L261.115 141.626L218.683 141.709L218.267 141.792L218.6 191.695L218.683 192.611L219.016 193.111L219.765 193.278L231.33 193.611L232.162 193.944L232.411 194.694L232.494 195.694L232.91 218.854L233.243 243.263L233.493 257.259L233.992 257.759L226.504 258.925L224.59 258.675L224.424 258.426L224.091 256.843L223.342 255.926L222.76 255.426L222.011 254.343L221.595 252.594L221.179 249.928L221.013 249.262L220.514 248.262L219.848 247.512L219.349 247.179L218.517 247.345L217.352 248.095H215.938L214.357 247.679H212.942L212.443 248.178L211.694 249.095L211.195 249.678L209.781 250.261L208.699 250.511L207.867 250.261L204.456 246.262L204.04 245.513L203.874 244.596V220.103L203.79 219.27L203.458 218.937L202.709 218.77H170.843L156.117 218.52L151.79 217.521L148.296 215.105L147.547 214.438L144.635 210.439L121.339 204.608L118.677 203.525L114.85 202.442H110.19L109.774 202.525L109.192 202.858L109.026 203.191L108.859 204.025L109.109 206.024L108.693 206.774L107.611 206.94L101.288 206.274L87.0608 210.439L80.1552 211.439L56.5264 211.023L52.7824 212.439L51.4512 213.272L49.288 215.521L48.456 215.938L44.7952 216.354L43.7968 216.188L43.2144 215.688L42.1328 214.355L41.4672 213.938L39.304 213.439L38.472 212.689L38.1392 211.772L37.1408 208.607L36.4752 207.607L34.728 206.69L33.064 205.357L35.4768 197.943L35.976 195.527L33.3968 188.529L30.9008 178.615L30.152 176.283L26.824 171.95L25.0768 170.368L23.6624 168.618L22.9968 167.285L22.248 164.703L15.5088 147.208L15.2592 146.874L13.4288 144.958L11.6816 142.209L10.9328 141.376L10.5168 141.043L9.35201 140.46L8.85281 140.126L8.3536 139.46L8.10401 138.46L8.52001 137.044L8.60322 135.877L8.02081 135.294H7.27201L6.2736 134.878L5.69122 134.295L5.27522 133.711L4.77602 132.628L3.27843 127.463L1.6976 123.214L1.36481 121.632L1.19843 118.549L16.424 119.382L29.0704 122.048L30.152 121.382L31.9824 118.049L33.1472 116.716L35.8928 115.383L37.1408 114.467L37.7232 113.717L37.8896 113.134L37.4736 112.801L34.4784 112.051L33.6464 111.634L32.8144 111.051L31.4832 109.635L30.4016 107.636L29.5696 105.47L29.32 103.304L29.4032 100.554L29.1536 98.305L28.488 96.3055L27.1568 94.1395L26.1584 91.307L26.2416 88.8077L26.6576 86.3084L26.824 83.3926L25.4928 77.1444L25.576 74.1452L27.1568 71.8126L32.3984 69.3966L31.8992 79.5603L31.4832 80.8933L30.568 83.1427L30.4016 84.0591L31.1504 87.6414L31.8992 89.2242L32.3984 89.8907L32.8144 89.7241L33.1472 88.0579L33.2304 86.3917L33.064 85.5586L34.728 81.4765L35.3936 79.8103L35.8928 79.3104L36.4752 79.5603L37.3904 82.3929L37.9728 83.226L41.3008 85.7252L42.0496 86.6416L42.2992 87.808L41.8 90.5572L41.9664 91.8901L42.216 93.3064L42.5488 93.9729L48.1232 99.2214L49.0384 99.6379L50.0368 99.5546L51.1184 98.5549L53.032 95.8057L53.9472 95.0559L55.0288 95.2225L55.944 95.9723L56.6096 96.6388L57.3584 96.972L58.5232 96.4722L59.6048 95.5557L60.3536 94.7226L61.1024 94.3894L63.5152 95.3891H64.5968L65.5952 94.9726L66.5936 94.3894L67.2592 93.8063L67.9248 92.2234L68.6736 91.2237L69.8384 90.3906L71.2528 90.0573L75.3296 89.6408L77.4928 88.8077L78.3248 88.5578L78.4912 87.9746L78.1584 82.8094L78.408 81.2265L78.9904 80.2268L79.8224 79.477L80.2384 78.7273L80.072 77.9775L78.9904 77.2277L77.6592 76.3113L73.9152 72.8123L73 72.3124L72.0848 71.8959L69.0896 71.7293L68.1744 71.2294L67.9248 69.8132L68.0912 67.1473L68.424 66.3142L69.256 65.731L70.7536 64.8979L71.0032 64.3981L70.92 62.8985L70.6704 62.5652L67.3424 60.3159L64.8464 59.3995L63.9312 58.8163L63.432 58.0665L63.1824 57.1501L63.2656 56.1504L63.432 55.234L63.7648 54.5675L64.4304 54.2343L65.8448 54.3176L66.1776 53.9844V52.5681L66.0944 51.6517L67.4256 51.3185L70.5872 49.7356L71.752 49.4857L75.7456 49.6523L76.9104 49.4024L78.1584 48.486L77.992 47.7362L77.2432 46.9031L76.8272 45.6534L77.2432 44.5704L79.4896 43.9039L80.3216 42.9042L82.7344 37.4058L83.2336 35.573L83.1504 34.3234L81.9024 31.6575L81.5696 29.5747L82.568 28.6583L84.1488 27.9919L85.6464 26.2424L86.1456 25.326L86.728 24.5762L87.8096 24.0763L89.1408 23.8264H90.472L91.5536 24.2429L92.3856 25.076L93.7168 27.0755L94.7152 27.6586L95.6304 27.5753L97.7936 26.6589L98.792 26.409L100.123 26.6589L105.864 29.4081L107.861 30.9077L109.358 32.9071L109.941 35.7396L109.774 37.1559L109.442 38.5721V39.8218L110.107 40.8215L111.106 41.0714L114.85 40.4883L115.598 40.0717L115.765 39.4052L115.515 38.7388L114.85 38.1556L112.52 35.3231L108.194 28.2418L106.613 24.4929L104.782 21.7437L102.702 20.1608L95.3808 16.6618L94.2992 15.6621L93.9664 14.1625L94.5488 12.9962L95.6304 12.1631L97.7936 11.1634L100.872 9.33056L101.954 8.91402L103.451 8.99732L109.691 11.5799L112.686 12.2464L115.765 12.413L118.178 11.7465L119.342 9.41387L120.174 2.66581L121.256 0.833008L122.67 1.6661L135.234 16.5785L139.144 20.2441L143.304 22.0769L145.883 22.5767L147.63 22.4934L149.294 21.9936L150.958 21.1605L152.456 20.9939L153.87 21.9103L157.614 25.8258L158.446 27.1588L158.946 28.6583L159.694 34.7399L160.443 36.1562L162.107 37.0726L165.102 37.4058L166.434 37.8224L168.763 40.405L170.261 40.9048L173.256 40.9881L185.653 39.072L190.728 39.5719L193.307 39.2386L195.97 39.5719L197.8 41.5713L199.464 44.1539L201.461 45.9867L204.04 46.9864L205.454 47.8195L206.12 48.9025L205.954 50.1521L204.955 50.9019L203.79 51.4018L202.792 52.0683L202.293 55.7339L203.458 59.6494L203.624 62.7319L200.13 64.0648L199.048 64.3981L198.382 65.1478L198.299 66.2309L198.965 67.3139L199.797 67.7304L202.792 67.5638L208.949 69.9798L210.696 71.396L212.693 74.4785L213.608 75.3949L216.354 77.0611L217.186 77.8109L217.851 78.7273L218.434 79.8103L218.517 80.8933L217.851 81.893L216.936 82.0596L215.854 81.5598L213.774 80.2268L211.611 79.5603L209.781 79.727L208.2 80.81L206.619 82.976L207.202 85.7252L208.949 89.2242L212.859 94.7226L213.442 96.2222L212.61 97.2219L210.197 98.3883L209.198 99.3047L208.45 100.388L207.95 101.721L207.202 107.969L207.618 109.802L209.282 111.468L221.346 117.716L224.84 120.299L228.002 123.464L229.666 124.714L231.746 125.297L235.24 125.214L242.312 122.881L254.043 122.131L258.12 123.131L260.949 126.047L261.698 125.297L262.446 123.964Z" fill="#19A3DD" stroke="white" stroke-linecap="round" stroke-linejoin="round"/>
</svg>
