<svg xmlns="http://www.w3.org/2000/svg" viewBox="0 0 495.32 329.87"><defs><style>.cls-1{fill:#19a3dd;}.cls-2,.cls-6{fill:#fff;}.cls-2,.cls-3,.cls-5,.cls-6{stroke:#19a3dd;stroke-miterlimit:10;}.cls-2,.cls-3{stroke-width:0.5px;}.cls-3,.cls-5{fill:none;}.cls-4{fill:#1ca3dd;}.cls-5{stroke-width:7px;}.cls-6{stroke-width:3px;}</style></defs><g id="Слой_4" data-name="Слой 4"><ellipse class="cls-1" cx="253.61" cy="264.86" rx="15.83" ry="9.45"/><rect class="cls-1" x="208.44" y="188.26" width="80.17" height="76.6"/><path class="cls-2" d="M248.66,221.9a13.1,13.1,0,0,1,4.09-7.27,25,25,0,0,1,7.13-4.56c5-2.28,10.39-3.6,15.6-5.36a55,55,0,0,0,7.59-3.12,14,14,0,0,0,3.37-2.11c.76-.73,1.49-1.5,2.3-2.17,2.17-1.78,2.93.66,2.89,2.55-.07,3-2.13,5.27-4.61,6.87l-4.34,2.81,4.26-2.13c1.74-.87,4.75,1.4,5,3.11a6,6,0,0,1-1,4.16,15.23,15.23,0,0,1-1.91,1.67l-3.23.6c1.33-.12,3.17-.84,4.38,0,1.95,1.35,3.55,5.19,1.92,7.87a6.57,6.57,0,0,1-4.32,2.73c-.76.13-1.62.13-1.62.18s3-.63,4.65.78c1.48,1.29,1.47,4,.72,5.9a6.65,6.65,0,0,1-4.2,3.73,6.56,6.56,0,0,1-4-.23l-1.47-.62c1,.46,2.46.87,3.2,1.65a4.15,4.15,0,0,1,.69,2.94c-.26,2.2-2.09,4.39-4.5,4.28a6.26,6.26,0,0,1-2.28-.45c1.22.25,1.83.47,1.83.68s-.39.32-1.14.46c-3.4.28-7.94.58-12.78.65a59,59,0,0,1-6.9-.13c-1.43,0-3.11.27-4.42-.38-.2-.1-.14-.9-.26-1.11-.5-.94-1.66-1.11-2.61-1.18-1.65-.14-2.12,1-3.51,1.52q-.21-8.35-.41-16.71l-.15-6.32A8,8,0,0,1,248.66,221.9Z"/><path class="cls-3" d="M282.68,209.54c-2.23,1.39-6,3.37-6.56,6.15-.39,1.8,2,1.55,3.07,1.52l6.5-.23c-1.83.06-3.67.44-5.5.57a19.84,19.84,0,0,0-5,.58,4.46,4.46,0,0,0-2.67,2.23c-.82,1.79.15,4,1.74,5.16,3.44,2.49,7.68,1.08,11.46,2.16-3.43,0-6.77-.13-10.19-.35a2.93,2.93,0,0,0-3.35,2.49c-.36,4.43,6.64,6.07,9.63,7.47-3-1-6.54-2.9-9.72-1.92-3.52,1.1-2.47,4.94-.31,6.93,2,1.81,4.66,2.56,7.14,3.41"/><rect class="cls-2" x="234.43" y="251.87" width="26.04" height="8.33" rx="4.17" transform="translate(-106.67 293.24) rotate(-51.97)"/><path class="cls-2" d="M215.23,237.67v-.29a39.56,39.56,0,0,1,.85-8.55c.63-2.84,1.75-5.51,2-8.44.57-6,.3-12.12,1.44-18.07a7.66,7.66,0,0,1,.75-2.36c.77-1.37,2.44-2.12,3.67-.84a5.67,5.67,0,0,1,.94,1.53,16.56,16.56,0,0,1,2,7.15,22.24,22.24,0,0,1-1,6.46c-.81,2.83-1.74,4.38-1.34,4.66s1.9-.9,3-2.26c.75-1,1-2.06,3-7.18.5-1.35.83-2.83,1.91-3.86a3.4,3.4,0,0,1,5.42.63,7.67,7.67,0,0,1,1,3.47c0,.5.28,3.6-.11,3.85,1.38-.86,3.69-1.85,5.33-1.13,2.31,1,1.56,4.93,1.47,6.91,0,1.06,1.78-.48,4.46-.16a4.49,4.49,0,0,1,2.39.69c1.37,1,1.83,3.12,1.83,4.74v1.56c0-1.79,3.54-1.55,4.31-.66,1.13,1.31.1,4.09-.34,5.5a47.47,47.47,0,0,1-4.55,9.34c-1.45,2.51-2.83,5-4.16,7.61-1.22,2.35-2.4,4.42-2.77,7.1a49.18,49.18,0,0,0-.28,6.43c0,5.71-.07,11.2,1,16.84l.17.6a24.5,24.5,0,0,0-3.13.1,30.24,30.24,0,0,1-6.29-.57c-4.51-.84-9.65-2.59-13.29-5.49-2-1.55-5.36-3.62-5.62-4.4-.19-.58.23-1.3.4-1.83a21.58,21.58,0,0,0,.84-5.48c.07-1.53.45-3.68-.13-5.14a6,6,0,0,0-.77-1.19,31.86,31.86,0,0,1-3.22-6.15C215,245.49,215.22,241.24,215.23,237.67Z"/><rect class="cls-1" x="160.28" y="76.95" width="4.85" height="26.72" transform="translate(-23.34 94.45) rotate(-30.31)"/><rect class="cls-1" x="153.62" y="67.02" width="3.71" height="21.85" transform="matrix(0.51, 0.86, -0.86, 0.51, 142.65, -95.5)"/><polygon class="cls-1" points="232.89 82.17 228.25 82.54 216.64 70.48 213.1 75.16 213.01 75.09 214.71 85.1 209.92 85.91 205.11 57.61 209.89 56.8 212.18 70.23 214.04 67.78 216.24 64.87 224.05 54.55 228.7 54.55 218.84 67.58 232.89 82.17"/><path class="cls-4" d="M357,83.12l-3.65,5.5-5.45,8.21a13.82,13.82,0,0,1-4.07,4.53,9.09,9.09,0,0,1-6.08,1.3c-2.64-.43-4.71-2.16-6.59-4a17.8,17.8,0,0,1-1.84-2.07L331.7,94a10.25,10.25,0,0,0,2.61,3c1.68,1.27,3.89,2.29,6,1.55a6.68,6.68,0,0,0,3-2.55c3.21-4.35,5.48-9.26,8.45-13.75L352,82l-9.25-6.13,2.05-3.09L358,81.53S357,83.11,357,83.12Z"/><polygon class="cls-1" points="294.04 85 289.46 84.16 281.35 69.52 276.73 73.13 276.66 73.03 275.72 83.14 270.88 82.69 273.53 54.11 278.36 54.56 277.11 68.13 279.54 66.24 282.41 63.99 292.62 56.04 297.11 57.24 284.23 67.28 294.04 85"/><ellipse class="cls-5" cx="251.59" cy="181.94" rx="135.19" ry="95.51"/><ellipse class="cls-5" cx="251.85" cy="184.37" rx="69.45" ry="90.25"/><ellipse class="cls-5" cx="252.35" cy="181.94" rx="103.65" ry="95.51"/><rect class="cls-1" x="119.29" y="179.19" width="264.38" height="5.5"/><rect class="cls-1" x="281.85" y="176.69" width="6.77" height="12.38"/><rect class="cls-1" x="217.36" y="176.26" width="5.93" height="12.71"/><rect class="cls-1" x="248.2" y="175.75" width="6.77" height="12.38"/><rect class="cls-6" x="211.79" y="96.35" width="77.62" height="79.53"/><path class="cls-1" d="M288.68,172.35l-1.76,1.08-13.06-22-.88-1.5-.1-.16c-.61-1-1.19-2.08-1.82-3.11a3.79,3.79,0,0,0-1.67-1.71,2.51,2.51,0,0,0-1.09-.16,3,3,0,0,0-.54.07l-.18.06a2.81,2.81,0,0,0-1.9,2.82v.05a4,4,0,0,1-2.22.44c0-.11,0-.23,0-.36a4.92,4.92,0,0,1,1.92-4.14,5,5,0,0,1,2.19-1,4.43,4.43,0,0,1,1.7,0,6,6,0,0,1,3.28,2.32,12.66,12.66,0,0,1,1,1.66l2.07,3.53q1.27,2.16,2.56,4.32l2.52,4.24,2.59,4.37,2.38,4,1.89,3.18,1.11,1.87Z"/><circle class="cls-1" cx="254.48" cy="112.12" r="7.36"/><path class="cls-1" d="M267.76,144.85a3.93,3.93,0,0,1-1.74,2.73,3.79,3.79,0,0,1-.34.2,4,4,0,0,1-5.21-1.34l-12.1-18.31a4,4,0,0,1,6.7-4.42L267.16,142a3.7,3.7,0,0,1,.38.74A3.84,3.84,0,0,1,267.76,144.85Z"/><path class="cls-1" d="M270.56,175.17a4.31,4.31,0,0,1-5.83-1l-12.57-17.07L240.57,174a4.31,4.31,0,0,1-5.79,1.14,3.89,3.89,0,0,1-1.21-5.53l14.74-21.45,1.88-2.52,1.87-2.52,1.88,2.52,1.87,2.52h-.08a3.41,3.41,0,0,1,.39.45l15.45,21A3.88,3.88,0,0,1,270.56,175.17Z"/></g></svg>