<svg width="278" height="386" viewBox="0 0 278 386" fill="none" xmlns="http://www.w3.org/2000/svg">
<path d="M39.6864 278.16H39.2704L39.104 276.41L37.3568 269.912L36.4416 267.913L36.0256 266.746L35.9424 265.997L36.0256 263.997L35.9424 261.998L35.36 258.499L35.2768 256.749L35.4432 255.083L36.0256 253.667L37.024 252.584L38.4384 252.334L38.7712 252.834L38.8544 253.417L37.1072 254.667L36.8576 257.749L37.6064 263.747L38.3552 269.995L39.6864 276.16L39.4368 277.077L39.6864 278.16ZM63.1488 215.344L63.3984 215.428L63.648 215.011L64.064 217.094L65.2288 218.927L64.896 219.843L64.2304 220.676L63.3152 221.259H62.4L62.1504 220.676L61.4848 218.26L61.0688 217.344L60.736 216.344L61.0688 215.428L61.7344 214.845L62.4 214.511L63.1488 215.344ZM240.198 83.5491L240.365 86.6315L240.698 88.2144L242.278 92.4632L243.776 97.6284L244.275 98.7114L244.691 99.2945L245.274 99.8777L246.272 100.294H247.021L247.603 100.877L247.52 102.044L247.104 103.46L247.354 104.46L247.853 105.126L248.352 105.459L249.517 106.043L249.933 106.376L250.682 107.209L252.429 109.958L254.259 111.874L254.509 112.208L261.248 129.702L261.997 132.285L262.662 133.618L264.077 135.367L265.824 136.95L269.152 141.282L269.901 143.615L272.397 153.529L274.976 160.527L274.477 162.943L272.064 170.357L273.728 171.69L275.475 172.607L276.141 173.606L277.139 176.772L270.067 180.438L266.989 182.771L266.656 183.354L266.49 184.603L266.822 185.77L267.571 187.103L267.738 187.686L268.486 192.268L273.395 211.096L273.478 211.929L273.146 212.512L272.064 213.428L268.32 214.845L266.906 215.678L266.573 216.011L266.157 216.844L248.352 275.244L248.019 277.077L247.936 278.16L247.52 279.326L245.939 282.075L245.523 283.492L245.773 285.074L245.69 285.824L245.19 286.574L243.693 287.24L243.277 287.74L242.944 288.907L242.362 295.905L242.445 297.071L243.027 298.071L243.693 298.487L244.941 298.571L245.856 298.82L249.184 300.487L250.099 300.82H250.848L253.76 299.903L254.925 299.82L255.757 299.903L257.254 300.653L258.419 300.57L260.083 299.903L260.998 299.737L261.414 299.903L261.83 300.403L262.496 302.819L262.746 303.402L263.994 305.402L264.909 306.235L270.483 310.067L275.558 315.066L275.309 315.232L274.144 317.315L273.478 318.065L271.565 319.315L270.733 320.064L269.734 320.647L268.486 320.481L266.157 319.481L257.421 317.815L256.506 317.565L254.509 316.399L252.179 314.483L251.68 314.399L248.851 314.899L244.192 316.982L243.194 317.149L242.445 316.732L241.696 316.149L240.864 315.649L239.866 315.399L234.541 315.566L232.378 316.399L230.464 317.815L226.72 321.231L226.387 322.23L227.968 324.063L228.218 325.396L228.051 326.729L227.469 327.895L226.554 328.645L221.562 329.478L220.563 329.312L218.483 328.479L216.154 328.145L207.75 329.645H206.835L206.003 329.395L204.422 328.562L203.507 328.229H200.512L199.597 327.895L197.35 326.562L193.773 325.729H192.026L180.461 328.229L176.717 328.395L175.302 328.978L170.976 332.311L169.728 332.977L168.563 333.894L167.898 334.06L165.235 334.893L163.987 335.643L163.405 336.81L162.739 337.059L159.328 337.726L158.163 338.142L157.664 338.726L157.082 340.059L156.666 340.642L156 340.892L155.168 340.975L154.502 341.392L154.17 342.391L153.67 343.141L151.008 346.223L142.189 352.305L140.442 354.221L139.693 355.471L139.36 356.637L139.11 358.137L138.112 360.386L138.195 361.969L138.445 362.385L139.11 362.969L139.36 363.469L139.443 363.968L139.36 365.801L139.194 366.801L138.362 368.634L138.195 369.8L137.946 370.3L136.448 371.549L133.702 373.382L132.954 374.132L131.789 374.549L130.374 376.132L129.459 376.548H128.211L124.634 375.798L123.302 375.965L113.402 381.713L111.322 382.463H110.074L108.659 382.296H107.411L106.33 383.046L105.248 384.129L104.166 384.546L103.002 384.629L87.1104 383.213L86.2784 373.965L85.696 371.05L84.6144 368.134L84.2816 366.634L83.9488 363.385L81.8688 353.555L80.8704 332.227L81.0368 330.978L81.8688 328.479L82.4512 324.896L83.8656 319.231L83.6992 317.149L84.3648 314.816L84.448 311.65L84.1152 306.152L84.032 305.568L83.5328 304.485L83.1168 303.069L82.9504 301.57L82.1184 296.988L82.0352 295.405L82.5344 289.323L83.2 286.324L84.1152 283.825L86.8608 279.493L87.8592 276.743L87.2768 274.494L88.192 273.828L88.608 272.495L88.9408 270.912L89.5232 269.662L90.1056 268.662L90.8544 267.163L91.104 266.08L90.5216 266.246L90.4384 264.664L89.6896 263.914L87.6096 263.164L87.2768 262.164L86.112 261.664L85.5296 260.581L85.28 259.082L84.6144 257.582L83.9488 257.082L81.7024 256.999L80.288 256.583L79.7056 256.499L79.1232 256.749L78.5408 257.416L77.8752 256.749L77.376 255.666L76.2112 252.084L75.8784 251.334L75.296 251.834L75.4624 253.084L76.0448 254.333L76.4608 255V255.5L75.5456 254.916L74.7136 253.833L74.2976 252.417L74.88 250.334L74.464 249.001V248.252L74.7968 247.752L76.4608 246.669L74.7136 246.502V244.919L76.0448 241.504L74.7968 242.17L73.216 243.42L72.3008 244.586L73.0496 245.169L73.632 253.417L72.9664 252.334L71.552 250.418L70.8864 249.251L70.5536 247.918V246.419L70.1376 245.253L68.8896 245.169L69.1392 244.17L69.3888 243.003L69.2224 241.92L68.64 241.504L68.3072 242.003L67.392 244.419L66.8928 245.169L66.6432 243.42L66.8928 241.17L68.0576 236.838L66.4768 238.421L67.4752 235.839L67.6416 234.756L67.3088 235.005L66.0608 235.255L66.7264 233.673L66.56 233.006L65.8112 233.423L64.896 234.756L64.48 234.172L63.8144 234.589L61.2352 234.756L60.1536 235.672H59.5712L59.6544 234.172H59.2384L58.8224 235.005L58.1568 235.672L57.408 236.255H56.4928L56.7424 235.755L57.2416 234.172L55.9936 234.256L55.6608 234.172L55.0784 234.672L54.6624 234.589L53.9968 233.756L53.248 234.006L51.7504 234.756H50.8352V234.172L51.168 233.673L51.0848 233.339L49.1712 233.089L48.256 232.423L47.6736 232.173L46.4256 232.256L43.68 233.089L42.432 233.756L44.5952 235.089L45.2608 235.255L44.1792 237.005L43.8464 238.005L43.68 239.171L43.7632 240.421L44.4288 243.586L44.2624 245.419L43.7632 246.336L43.0976 246.169L41.6832 235.422L41.3504 234.506L38.8544 230.757L38.688 229.507L39.2704 228.008L39.7696 227.258L41.4336 225.675L41.7664 224.925L42.1824 223.176L43.3472 222.176L44.096 220.76L46.2592 214.845L47.84 211.596L49.8368 209.43L52 209.846L50.8352 210.513L49.92 211.346L48.256 213.762L48.0064 214.345L47.424 216.511L46.0096 218.094L46.3424 220.01L48.5056 220.343L54.912 219.01L58.656 219.177L59.8208 219.593L60.4864 220.593L60.9856 221.759L61.6512 222.759L62.4832 223.342L63.4816 223.675L65.8944 223.842L66.8928 224.342H67.392L67.6416 223.592V222.842L67.4752 222.259L67.0592 221.926L66.4768 221.759L67.2256 219.843L67.9744 220.093L68.7232 221.343L69.6384 222.342L70.8032 222.259L72.4672 220.593L73.632 220.26L74.2144 220.426L75.5456 221.176L76.0448 221.259L76.7104 220.593L76.544 219.76L75.8784 219.093L75.296 218.594L73.9648 218.094L71.552 217.511L70.4704 216.511L71.3856 216.261L71.968 215.678V214.845L71.4688 213.762L70.72 212.929L69.888 212.762L67.1424 213.095L66.8928 212.595V211.096L66.6432 210.346L66.2272 209.43L65.5616 208.596L64.896 208.18L65.2288 210.762V211.845H64.896L62.7328 208.513L61.2352 207.014L59.6544 206.597L59.904 207.097L60.4864 208.763L58.8224 207.763V209.18L59.9872 210.596L60.0704 211.845L58.0736 210.513L57.824 207.763L58.8224 201.932L58.1568 202.348L57.408 202.432L56.6592 202.348L55.9936 201.932V201.432L57.9904 200.432L60.9856 196.183L62.8992 194.101L62.5664 193.684L62.0672 192.601L63.0656 192.101L64.2304 192.018L65.0624 191.768V191.185L64.48 190.518L65.0624 189.602L65.9776 188.685L66.8096 187.686L67.3088 186.27L66.4768 186.769L65.4784 185.77L64.5632 185.603L62.4 185.77L61.4848 185.436L60.0704 184.187L59.2384 183.604L58.24 183.354L57.1584 183.27L56.2432 183.604L55.2448 184.187L52.832 187.019L51.8336 187.353L50.6688 188.269L50.2528 188.436L49.7536 188.269L48.7552 187.519L47.5904 187.019L43.7632 184.02L42.7648 184.437L41.9328 185.27L41.0176 185.77L36.8576 186.27L37.5232 185.02L38.4384 184.187L34.4448 185.52L32.1984 185.77L30.368 185.27L29.4528 182.937L28.6208 182.187L27.6224 183.187V183.937L28.0384 185.02L29.0368 186.519L29.2032 187.436L29.6192 191.768L29.952 192.434L31.616 194.684L32.1984 195.1L34.4448 199.266L36.2752 201.015L36.8576 201.432V201.932L34.8608 201.015L36.4416 203.015L36.0256 203.515L34.1952 201.682L33.3632 200.599L31.6992 196.6L30.9504 195.517L28.8704 194.684L28.1216 193.434L27.7888 191.851L27.456 188.852L26.9568 188.019L21.2992 183.52L19.3024 181.354L18.3872 179.688L18.8864 176.439L19.3024 174.523L19.8016 173.44L20.1344 172.024L19.552 170.607L17.9712 168.441L18.72 167.775L18.4704 167.025L17.2224 165.775L16.1408 162.86L16.3072 159.86L18.304 146.614L19.136 144.115L20.384 141.532L23.8784 136.617L25.7088 133.285L25.9584 130.452L25.4592 130.036L23.9616 129.619L23.6288 129.119L23.712 128.453L24.2112 127.037L23.8784 126.537L24.6272 126.037L25.6256 125.62L25.9584 125.704L26.1248 124.954L26.0416 124.204L25.6256 123.038L27.04 117.206L29.2032 111.374L29.7024 108.709L28.8704 103.293L28.7872 100.211L29.4528 100.628L30.8672 101.461L31.4496 102.044L31.6992 102.96L31.5328 103.877L31.2832 104.71V105.543L31.8656 107.042L34.3616 110.291L34.8608 111.624L35.5264 114.54L36.0256 115.623L37.9392 116.956L38.0224 117.206L39.52 117.289L40.1856 117.123L39.936 117.789L38.5216 118.289L37.44 118.872L37.856 120.122L39.1872 121.372L39.6864 121.955L39.7696 122.704V123.538L39.936 124.287L40.6848 124.621L43.264 124.871L44.3456 124.704L45.6768 124.121L48.256 121.288L49.2544 120.955L48.256 123.038L48.0064 124.204L48.672 124.704L52.9984 124.121L53.4976 123.787L53.664 121.955L53.8304 121.205L54.6624 119.955L55.328 119.539L55.9936 119.872L56.0768 120.288L55.6608 121.788V122.455L56.16 123.954L56.992 125.204L58.1568 125.954L59.488 126.287L59.8208 126.453L60.6528 127.203L61.2352 127.287L61.9008 127.203L63.232 126.287L65.312 125.287L66.144 124.371L66.4768 122.788L66.3936 119.455L66.56 118.206L68.0576 115.207L68.3072 115.04H69.056L69.6384 115.207L70.2208 115.54L70.6368 116.04L71.0528 116.706L72.0512 117.206L72.1344 117.706L71.6352 118.789L71.968 120.455L72.3008 121.038L72.8832 121.455L72.384 122.538L71.6352 123.538L72.3008 124.871L73.216 128.036L74.048 129.453L74.7136 129.786L75.712 130.119L76.0448 130.952L75.8784 131.535L75.0464 133.201L74.88 133.868L75.7952 135.784H78.0416L80.704 135.201L84.1152 135.701L85.1136 134.784L86.0288 133.618L88.5248 132.202L89.1072 132.035L89.6896 132.202L91.2704 133.035L92.768 133.285L93.9328 132.868L95.0144 132.368L96.8448 131.869L97.2608 131.369L97.5936 130.785L97.6768 130.202L97.344 130.119L95.8464 129.369L95.264 128.869L98.6752 128.953L100.422 128.703L102.17 127.703L105.664 127.87L105.83 128.036L105.581 128.536L104.998 130.369L104.832 130.785L105.082 131.035L106.912 131.869L115.731 132.035L114.566 131.369L113.318 130.952L114.067 129.952L116.397 129.369L117.312 128.37L111.488 128.453L110.739 128.37L110.323 127.62L110.157 126.037L109.907 124.621L108.826 122.455L108.41 120.455L107.827 119.205L107.744 118.539L107.827 118.039L108.16 117.289L108.077 116.706L107.744 116.54L107.162 116.623L106.662 116.456L106.496 115.623L106.746 115.29L107.661 115.207L108.077 115.04L109.574 113.291L110.406 112.707L111.488 112.457L113.235 113.207L116.73 116.123H117.728L119.392 117.206L119.558 118.289L118.81 119.539L117.728 120.955L119.891 121.538L126.63 120.205L128.627 119.455L129.542 119.289L130.541 117.456L133.037 116.206L133.536 115.706L135.782 112.041L136.282 110.791L136.531 109.542L136.365 108.209L135.782 107.126L134.368 105.21L132.454 102.21L131.789 101.794V101.294L133.037 101.461L134.451 102.21L136.947 103.96L136.614 103.293L135.45 102.294L134.95 101.794L134.451 100.961L134.118 100.211L134.202 99.6278L134.784 98.9613L133.952 97.8783L132.371 97.3784L130.707 97.1285L129.293 96.462L129.21 94.1294L127.213 91.88L115.565 82.716L110.323 80.4666L109.325 79.7169L107.245 77.5508L104.499 75.9679L103.251 75.0515L103.002 74.7183L102.336 73.3854L101.088 71.3859L100.589 70.9694L98.5088 70.5528L97.344 69.803L96.4288 68.8033L95.68 67.637L94.5152 65.1377L93.9328 62.3885L93.6832 59.3061L93.6 52.558L93.2672 49.7255L92.6016 47.0596L91.6864 44.5603L88.8576 39.7284L88.192 37.7289L86.8608 37.3124L86.4448 36.9792L86.1952 36.0628L86.3616 35.313L86.6944 34.6465L86.8608 33.7301L86.528 31.7307L86.4448 30.8143L87.1936 28.8981L87.2768 28.0651V26.7321L87.0272 25.1492L86.6944 23.6497L86.112 22.4L84.2816 20.5672L81.536 18.7344L78.5408 17.818L76.0448 18.6511L73.5488 17.2348L55.6608 20.234L52.1664 22.0668L51.0016 22.4L46.5088 22.1501L43.264 20.4006L40.8512 21.4836L38.6048 23.483L37.1904 25.0659L31.3664 29.8146L30.0352 32.0639L23.296 47.0596L22.2144 48.6425L21.3824 49.3089L20.9664 50.142L20.4672 52.0582L20.2176 54.0576L20.384 55.3072L21.1328 55.0573L22.9632 52.6413L23.7952 52.0582L26.7072 52.3081L28.0384 52.9746L28.7872 54.2242V55.2239L27.872 56.8901L27.6224 57.7232L27.7056 58.473L27.9552 60.0558L28.0384 60.8889L27.7888 62.6384L23.8784 72.7189L23.6288 74.3017L22.9632 76.5511L22.7968 77.3009L22.88 78.0507L23.6288 79.9668L24.2112 83.2158L24.544 88.1311L25.0432 89.3807L28.1216 95.8789L28.4544 97.2951L28.1216 98.878L26.8736 101.127L26.7904 102.877H26.4576L26.1248 102.127L25.1264 101.294L24.7936 100.794L24.7104 99.8777L25.2096 97.5451V95.7122L24.96 94.1294L24.544 92.6298L23.9616 91.1302L22.7968 89.5474L22.6304 88.631L22.7968 87.1314V86.3816L21.4656 81.7996L21.3824 81.0498L20.6336 80.3833L19.7184 77.3842L18.8032 76.7177L18.0544 76.5511L17.5552 76.1346L17.3056 75.3848L17.056 73.552L16.7232 73.1354L15.808 72.219L15.1424 71.7192L13.5616 71.4692L13.0624 71.136L10.9824 68.4701L9.984 67.637L8.9024 67.1371L8.0704 66.304L7.9872 64.3879L8.1536 64.2213L9.4016 61.972L9.568 61.3888L9.6512 60.4724L9.568 58.7229L9.6512 58.223L10.0672 57.3899L9.9008 56.3902L9.152 55.8071L8.736 54.2242L8.4032 53.641L7.9872 53.1412L7.5712 52.9746L6.656 53.1412L6.24 52.8912L5.3248 51.6416L4.4096 51.2251L3.4944 50.142L2.9952 49.8921L1.5808 49.4756L0.832001 48.3092L3.2448 45.8933L12.1472 36.8959L19.968 29.0648L32.448 18.5678L41.6 15.3187L44.928 13.3193L57.824 8.23743L61.6512 7.40434L71.968 5.48822L94.9312 1.32275L99.3408 1.90592L103.584 3.4888L112.653 9.57038L135.283 24.816L145.184 33.8967L146.515 35.7295L147.098 37.3124V38.6453L146.848 39.9783L146.765 41.6445L147.098 43.2274L147.68 44.6436L156.416 56.5569L163.904 69.9697L165.734 72.1357L167.731 73.9685L171.392 76.5511L172.39 77.5508L173.056 78.8838L174.72 82.8826L175.718 84.2156L176.883 85.132L178.547 86.0484L180.378 86.6315L187.699 86.215L191.194 84.882L196.602 84.1322L201.843 81.5497L203.757 81.383L207.75 81.7996L217.235 82.2994L240.198 83.5491Z" fill="#19A3DD" stroke="white" stroke-linecap="round" stroke-linejoin="round"/>
</svg>
